# xmcd
#
# Track frame offsets:
#	182
#	13545
#	28685
#	46270
#	77382
#	88740
#	103852
#	115655
#	134512
#	153622
#	164075
#	174877
#	193977
#	210722
#	221820
#	235927
#	256117
#	275557
#
# Disc length: 3884 seconds
#
# Revision: 5
# Processed by: cddbd v1.5.2PL0 Copyright (c) Steve Scherf et al.
# Submitted via: audiograbber 1.83.01
#
DISCID=fc0f2a12
DTITLE=Various Artist - Blues Masters, Volume 15: Slide Guitar Classics
DYEAR=1993
DGENRE=Blues
TTITLE0=Elmore James - Dust My Broom
TTITLE1=Muddy Waters and His Guitar - Honey Bee
TTITLE2=Hound Dog Taylor and The HouseRockers - Taylor's Rock
TTITLE3=Robert Nighthawk and His Flames Of Rhythm - Maxwell Street Medley
TTITLE4=J.B. Hutto and His Hawks - Too Much Alcohol
TTITLE5=Blind Willie Johnson - Dark Was The Night, Cold Was The Ground
TTITLE6=The Johnny Shines Blues Band - Dynaflow Blues
TTITLE7=Joe Carter And His Chicago Broomdusters - Treat Me The Way You Do
TTITLE8=Homesick James - Homesick's Shuffle
TTITLE9=Chuck Berry - Deep Feeling
TTITLE10=Hop Wilson and His Chickens - Chicken Stuff
TTITLE11=Black Ace - I Am The Black Ace
TTITLE12=Earl Hooker - Is You Ever Seen A One-Eyed Woman Cry
TTITLE13=The Paul Butterfield Blues Band - Shake Your Money-Maker
TTITLE14=Canned Heat - Rollin' And Tumblin'
TTITLE15=Johnny Winter - Mean Town Blues
TTITLE16=The Allman Brothers Band - Statesburo Blues
TTITLE17=Ry Cooder - All Shook Up
EXTD=
EXTT0=
EXTT1=
EXTT2=
EXTT3=
EXTT4=
EXTT5=
EXTT6=
EXTT7=
EXTT8=
EXTT9=
EXTT10=
EXTT11=
EXTT12=
EXTT13=
EXTT14=
EXTT15=
EXTT16=
EXTT17=
PLAYORDER=
